<?xml version="1.0" encoding="UTF-8" standalone="no"?><svg xmlns="http://www.w3.org/2000/svg" xmlns:xlink="http://www.w3.org/1999/xlink" contentStyleType="text/css" height="259px" preserveAspectRatio="none" style="width:569px;height:259px;background:#FFFFFF;" version="1.1" viewBox="0 0 569 259" width="569px" zoomAndPan="magnify"><defs/><g><rect height="11.6406" style="stroke:#00000000;stroke-width:1.0;fill:none;" width="3" x="453" y="10"/><text fill="#888888" font-family="sans-serif" font-size="10" lengthAdjust="spacing" textLength="3" x="453" y="19.2822"> </text><rect fill="#90EE90" height="36.2969" rx="12.5" ry="12.5" style="stroke:#181818;stroke-width:1.5;" width="63" x="197" y="117.0859"/><text fill="#000000" font-family="sans-serif" font-size="14" lengthAdjust="spacing" textLength="39" x="207" y="140.0811">rebib</text><rect fill="#00FFFF" height="52.5938" rx="12.5" ry="12.5" style="stroke:#181818;stroke-width:1.5;" width="247" x="310" y="80.7891"/><text fill="#000000" font-family="sans-serif" font-size="14" lengthAdjust="spacing" textLength="173" x="324" y="103.7842">Embedded Bibliography</text><text fill="#000000" font-family="sans-serif" font-size="14" lengthAdjust="spacing" textLength="219" x="328" y="120.0811">conversion using inbuilt parser</text><path d="M260,135.2344 L270,135.2344 C285,135.2344 285,107.0859 300,107.0859 L310,107.0859 " fill="none" style="stroke:#181818;stroke-width:1.0;"/><rect fill="#00FFFF" height="36.2969" rx="12.5" ry="12.5" style="stroke:#181818;stroke-width:1.5;" width="212" x="310" y="153.3828"/><text fill="#000000" font-family="sans-serif" font-size="14" lengthAdjust="spacing" textLength="192" x="320" y="176.3779">Aggregated Bibliographies</text><path d="M260,135.2344 L270,135.2344 C285,135.2344 285,171.5313 300,171.5313 L310,171.5313 " fill="none" style="stroke:#181818;stroke-width:1.0;"/><rect fill="#00FFFF" height="36.2969" rx="12.5" ry="12.5" style="stroke:#181818;stroke-width:1.5;" width="127" x="20" y="32.6406"/><text fill="#000000" font-family="sans-serif" font-size="14" lengthAdjust="spacing" textLength="107" x="30" y="55.6357">BibTeX Reader</text><path d="M197,135.2344 L187,135.2344 C172,135.2344 172,50.7891 157,50.7891 L147,50.7891 " fill="none" style="stroke:#181818;stroke-width:1.0;"/><rect fill="#00FFFF" height="36.2969" rx="12.5" ry="12.5" style="stroke:#181818;stroke-width:1.5;" width="137" x="10" y="88.9375"/><text fill="#000000" font-family="sans-serif" font-size="14" lengthAdjust="spacing" textLength="117" x="20" y="111.9326">Citation Tracker</text><path d="M197,135.2344 L187,135.2344 C172,135.2344 172,107.0859 157,107.0859 L147,107.0859 " fill="none" style="stroke:#181818;stroke-width:1.0;"/><rect fill="#00FFFF" height="36.2969" rx="12.5" ry="12.5" style="stroke:#181818;stroke-width:1.5;" width="105" x="42" y="145.2344"/><text fill="#000000" font-family="sans-serif" font-size="14" lengthAdjust="spacing" textLength="85" x="52" y="168.2295">Automation</text><path d="M197,135.2344 L187,135.2344 C172,135.2344 172,163.3828 157,163.3828 L147,163.3828 " fill="none" style="stroke:#181818;stroke-width:1.0;"/><rect fill="#00FFFF" height="36.2969" rx="12.5" ry="12.5" style="stroke:#181818;stroke-width:1.5;" width="116" x="31" y="201.5313"/><text fill="#000000" font-family="sans-serif" font-size="14" lengthAdjust="spacing" textLength="96" x="41" y="224.5264">Log activities</text><path d="M197,135.2344 L187,135.2344 C172,135.2344 172,219.6797 157,219.6797 L147,219.6797 " fill="none" style="stroke:#181818;stroke-width:1.0;"/><!--MD5=[d6798776d67f75a1a947d9afa870cdda]
@startmindmap


title ""

header

endheader




<style>
mindmapDiagram {
  .green {
    BackgroundColor lightgreen
  }
  .rose {
    BackgroundColor #FFBBCC
  }
}
</style>

* rebib <<green>>



**[#cyan]: Embedded Bibliography 
  conversion using inbuilt parser;
**[#cyan] Aggregated Bibliographies

left side
 

**[#cyan] BibTeX Reader

**[#cyan] Citation Tracker

**[#cyan] Automation
**[#cyan] Log activities

@endmindmap

PlantUML version 1.2022.7beta2(Unknown compile time)
(GPL source distribution)
Java Runtime: Java(TM) SE Runtime Environment
JVM: Java HotSpot(TM) 64-Bit Server VM
Default Encoding: UTF-8
Language: en
Country: US
--></g></svg>